<mxfile host="app.diagrams.net" modified="2024-06-06T01:35:04.537Z" agent="Mozilla/5.0 (Windows NT 10.0; Win64; x64) AppleWebKit/537.36 (KHTML, like Gecko) Chrome/125.0.0.0 Safari/537.36" version="24.4.14" etag="qGz_a_7rwcIwXm9lLOEC" type="github">
  <diagram name="第 1 页" id="1aud1WgMR6J2PO78rMxs">
    <mxGraphModel>
      <root>
        <mxCell id="0" />
        <mxCell id="1" parent="0" />
      </root>
    </mxGraphModel>
  </diagram>
</mxfile>
